#!OML:ASF F:\VICON\USERDATA\INSTALL\rory3\rory3.ASF
:FULLY-SPECIFIED
:DEGREES
49
root 0.5297 18.1034 -23.7337 -0.233246 -5.52965 -4.30464
lowerback 7.76594 2.43316 3.56563
upperback 1.0712 3.5734 1.15619
thorax -3.09579 1.73969 -1.16654
lowerneck -15.539 -3.16939 -1.0664
upperneck 14.9223 -3.9893 -0.44543
head 7.13955 -2.01467 -0.393475
rclavicle 1.06272e-014 7.45443e-015
rhumerus -31.1255 -20.5522 -76.8762
rradius 28.1279
rwrist 2.88912
rhand -13.4303 13.033
rfingers 7.12502
rthumb 12.6784 -16.5622
lclavicle 1.06272e-014 7.45443e-015
lhumerus -39.1257 6.0382 81.9613
lradius 24.4548
lwrist -1.52589
lhand -22.5692 31.1096
lfingers 7.12502
lthumb 3.85912 61.0544
rfemur 4.98563 5.46939 27.7167
rtibia 44.0743
rfoot 4.46971 2.29224
rtoes -8.56119
lfemur -24.7595 -4.48054 -15.8652
ltibia 27.8263
lfoot -4.64084 -0.352442
ltoes -2.01822
50
root 0.559307 18.1332 -23.5522 -0.162333 -5.6428 -3.89644
lowerback 7.58027 2.31713 3.12885
upperback 0.334267 3.40341 1.26469
thorax -3.79634 1.64325 -0.807009
lowerneck -12.6337 -2.92373 -1.60812
upperneck 14.2304 -3.60946 -0.319607
head 6.42962 -1.85791 -0.170815
rclavicle -7.75571e-015 1.23743e-014
rhumerus -32.927 -19.5669 -76.1787
rradius 28.2211
rwrist 2.88208
rhand -13.1322 13.3062
rfingers 7.12502
rthumb 12.9658 -16.271
lclavicle -7.75571e-015 1.23743e-014
lhumerus -40.808 6.51851 81.7624
lradius 24.6
lwrist -1.24461
lhand -21.6374 31.2611
lfingers 7.12502
lthumb 4.75887 61.1877
rfemur 3.56949 5.48932 26.9781
rtibia 46.4651
rfoot 7.13343 2.65626
rtoes -5.88225
lfemur -24.2689 -4.27936 -16.5914
ltibia 28.0652
lfoot -4.99178 -0.0898999
ltoes -3.86108
51
root 0.586718 18.1681 -23.3842 -0.201996 -5.71137 -3.49398
lowerback 7.75092 2.45564 2.90497
upperback 0.884142 3.54783 1.0014
thorax -3.31254 1.72897 -0.960981
lowerneck -15.6003 -3.03448 -1.13547
upperneck 15.1939 -3.78814 -0.454808
head 7.23965 -1.92273 -0.36816
rclavicle 4.45309e-014 -9.69075e-015
rhumerus -31.8412 -20.6928 -76.4619
rradius 27.9252
rwrist 3.35248
rhand -12.73 13.6729
rfingers 7.12502
rthumb 13.3534 -15.8792
lclavicle 4.45309e-014 -9.69075e-015
lhumerus -39.2436 6.05408 81.9169
lradius 24.5791
lwrist -0.951645
lhand -21.4654 31.6927
lfingers 7.12502
lthumb 4.92498 61.6155
rfemur 2.19258 5.51827 26.3163
rtibia 48.8906
rfoot 10.1409 2.80422
rtoes -1.83168
lfemur -23.6134 -4.23645 -17.2755
ltibia 28.0947
lfoot -5.05987 0.0713486
ltoes -2.81775
52
root 0.605755 18.1882 -23.2266 -0.369581 -5.81256 -3.14992
lowerback 8.08607 2.46684 2.62399
upperback 0.701383 3.55153 0.893619
thorax -3.69929 1.7263 -0.938433
lowerneck -15.0788 -2.99896 -1.07046
upperneck 15.1083 -3.76137 -0.460698
head 7.1202 -1.90807 -0.367949
rclavicle -4.77114e-014 7.85199e-015
rhumerus -32.4543 -20.5608 -76.3853
rradius 28.1681
rwrist 3.6178
rhand -13.0306 16.5705
rfingers 7.12502
rthumb 13.0637 -13.0004
lclavicle -4.77114e-014 7.85199e-015
lhumerus -39.5889 5.78 81.8128
lradius 25.0984
lwrist -1.45577
lhand -22.8588 29.9887
lfingers 7.12502
lthumb 3.57947 59.9384
rfemur 0.842436 5.57733 25.7841
rtibia 51.3059
rfoot 13.3179 2.74886
rtoes 3.91628
lfemur -22.8661 -4.18903 -17.8597
ltibia 27.9909
lfoot -5.38117 0.00246048
ltoes -2.16845
53
root 0.619787 18.199 -23.0696 -0.687053 -6.03297 -2.79407
lowerback 8.48139 2.4813 2.2168
upperback 0.64831 3.5456 0.853203
thorax -3.99755 1.72459 -0.774235
lowerneck -14.6019 -2.86484 -1.1402
upperneck 14.8853 -3.58641 -0.364412
head 6.96845 -1.82069 -0.297124
rclavicle -4.20802e-014 -9.79014e-015
rhumerus -32.6871 -20.3 -76.3355
rradius 28.4876
rwrist 5.07652
rhand -15.1858 23.8067
rfingers 7.12502
rthumb 10.9856 -5.88582
lclavicle -4.20802e-014 -9.79014e-015
lhumerus -39.7447 5.67756 81.71
lradius 25.6598
lwrist -2.36323
lhand -21.754 30.7281
lfingers 7.12502
lthumb 4.64633 60.6572
rfemur -0.406085 5.74412 25.275
rtibia 53.7263
rfoot 15.9063 2.50583
rtoes 7.83448
lfemur -21.9767 -4.0615 -18.45
ltibia 27.8609
lfoot -5.55151 0.041045
ltoes -0.853859
54
root 0.637934 18.2189 -22.9043 -0.851248 -6.25509 -2.55281
lowerback 8.73276 2.44126 1.89148
upperback 0.5144 3.4746 0.928417
thorax -4.30346 1.691 -0.523284
lowerneck -14.2809 -2.74682 -1.37696
upperneck 14.8523 -3.38571 -0.326884
head 6.907 -1.73515 -0.220918
rclavicle 3.30169e-015 -4.47266e-016
rhumerus -32.9355 -19.6019 -76.3297
rradius 27.7613
rwrist 3.51574
rhand -12.6891 12.5168
rfingers 7.12502
rthumb 13.3928 -17.0327
lclavicle 3.30169e-015 -4.47266e-016
lhumerus -40.0288 5.45574 81.9283
lradius 25.7113
lwrist -1.11605
lhand -22.4405 29.0005
lfingers 7.12502
lthumb 3.98343 58.943
rfemur -1.74333 5.90192 24.8517
rtibia 56.0385
rfoot 17.2245 1.76798
rtoes 7.57067
lfemur -21.1508 -4.05984 -18.9174
ltibia 27.7872
lfoot -5.57473 0.260415
ltoes 1.13028
55
root 0.661226 18.24 -22.7348 -0.971436 -6.40196 -2.12836
lowerback 8.65082 2.39263 1.41382
upperback 0.560332 3.36172 0.956267
thorax -4.24106 1.64553 -0.209467
lowerneck -14.1134 -2.72553 -1.40114
upperneck 14.6363 -3.31781 -0.536538
head 6.80486 -1.72267 -0.273056
rclavicle 3.54396e-014 1.35174e-014
rhumerus -32.9284 -19.173 -76.3176
rradius 27.4577
rwrist 3.26611
rhand -13.2391 15.079
rfingers 7.12502
rthumb 12.8627 -14.5047
lclavicle 3.54396e-014 1.35174e-014
lhumerus -39.9937 5.63416 81.9531
lradius 26.0501
lwrist -1.29851
lhand -23.3723 27.6404
lfingers 7.12502
lthumb 3.08356 57.5979
rfemur -3.05454 5.85673 24.1495
rtibia 58.2058
rfoot 17.7698 1.02366
rtoes 5.55968
lfemur -20.3394 -4.06103 -19.6334
ltibia 27.7625
lfoot -5.90082 0.485344
ltoes 1.23784
56
root 0.68197 18.259 -22.5748 -1.10178 -6.27767 -1.88068
lowerback 8.53139 2.33312 1.21848
upperback 0.757443 3.25733 0.951741
thorax -3.98096 1.60028 -0.0820294
lowerneck -14.1342 -2.70828 -1.37911
upperneck 14.3296 -3.28189 -0.633243
head 6.70734 -1.71212 -0.301389
rclavicle -2.98798e-015 -7.15625e-015
rhumerus -32.6777 -19.0837 -76.3786
rradius 27.4996
rwrist 3.55671
rhand -13.6251 17.6128
rfingers 7.12502
rthumb 12.4906 -11.9939
lclavicle -2.98798e-015 -7.15625e-015
lhumerus -39.5938 5.27613 82.1893
lradius 26.3288
lwrist -0.902194
lhand -23.9419 27.2793
lfingers 7.12502
lthumb 2.53346 57.244
rfemur -4.29546 5.57471 23.7352
rtibia 60.1908
rfoot 17.5961 0.331192
rtoes 3.57662
lfemur -19.6307 -4.10718 -20.1554
ltibia 27.7704
lfoot -6.1517 0.493175
ltoes 1.93748
57
root 0.698495 18.2787 -22.4213 -1.19967 -5.93788 -1.8202
lowerback 8.69943 2.17413 1.14708
upperback 0.823915 3.04416 1.02939
thorax -4.01531 1.49613 0.0576103
lowerneck -14.5248 -2.61109 -1.44064
upperneck 14.4307 -3.13521 -0.596122
head 6.80826 -1.64139 -0.271646
rclavicle 4.44781e-015 -1.15295e-014
rhumerus -32.4641 -19.1128 -76.2937
rradius 27.5295
rwrist 4.56394
rhand -13.611 19.9013
rfingers 7.12502
rthumb 12.5042 -9.70463
lclavicle 4.44781e-015 -1.15295e-014
lhumerus -39.2874 5.01072 82.3721
lradius 26.3413
lwrist -0.0626007
lhand -23.6056 29.442
lfingers 7.12502
lthumb 2.85824 59.4026
rfemur -5.5773 4.97623 23.5346
rtibia 62.0432
rfoot 16.4429 -0.285193
rtoes 1.34378
lfemur -18.9734 -4.28565 -20.4427
ltibia 27.7118
lfoot -6.33142 0.494155
ltoes 2.47991
58
root 0.708768 18.29 -22.2685 -1.38026 -5.73212 -1.75818
lowerback 8.86053 2.02316 0.980882
upperback 0.790514 2.83571 1.14151
thorax -4.15488 1.39552 0.284463
lowerneck -14.2283 -2.46941 -1.55032
upperneck 14.4225 -2.93087 -0.560614
head 6.75643 -1.54632 -0.217747
rclavicle -1.58282e-014 2.38542e-015
rhumerus -32.5177 -19.2294 -76.0721
rradius 27.269
rwrist 5.25337
rhand -13.2676 20.4996
rfingers 7.12502
rthumb 12.8352 -9.08576
lclavicle -1.58282e-014 2.38542e-015
lhumerus -39.3278 5.06743 82.3567
lradius 26.5151
lwrist 0.240519
lhand -23.2459 31.3762
lfingers 7.12502
lthumb 3.20559 61.3319
rfemur -6.77014 4.45096 23.3669
rtibia 63.836
rfoot 14.9017 -0.926086
rtoes 1.36926
lfemur -18.211 -4.57169 -20.6772
ltibia 27.5935
lfoot -6.57232 0.754054
ltoes 2.82915
59
root 0.719696 18.2967 -22.1177 -1.53281 -5.73555 -1.45629
lowerback 8.88379 2.00898 0.629314
upperback 0.857443 2.78096 1.12866
thorax -4.1143 1.37466 0.475176
lowerneck -14.1249 -2.38972 -1.56165
upperneck 14.4076 -2.82527 -0.542691
head 6.73387 -1.49459 -0.198153
rclavicle -6.25178e-014 -7.95139e-015
rhumerus -32.494 -19.0813 -76.1604
rradius 27.2214
rwrist 4.62484
rhand -12.6448 18.4559
rfingers 7.12502
rthumb 13.4356 -11.0908
lclavicle -6.25178e-014 -7.95139e-015
lhumerus -39.0943 4.96286 82.326
lradius 26.7321
lwrist 0.34615
lhand -23.3393 30.6009
lfingers 7.12502
lthumb 3.11546 60.5579
rfemur -8.05225 4.08882 22.9027
rtibia 65.5693
rfoot 13.5873 -1.4782
rtoes 3.29512
lfemur -17.5508 -4.61299 -21.1683
ltibia 27.4913
lfoot -6.80343 0.933811
ltoes 3.57381
